<?xml version="1.0" standalone="no"?>
<!DOCTYPE svg PUBLIC "-//W3C//DTD SVG 20010904//EN"
 "http://www.w3.org/TR/2001/REC-SVG-20010904/DTD/svg10.dtd">
<svg version="1.0" xmlns="http://www.w3.org/2000/svg"
 width="500.000000pt" height="182.000000pt" viewBox="0 0 500.000000 182.000000"
 preserveAspectRatio="xMidYMid meet">
<metadata>
Created by potrace 1.14, written by Peter Selinger 2001-2017
</metadata>
<g transform="translate(0.000000,182.000000) scale(0.100000,-0.100000)"
fill="#000000" stroke="none">
<path d="M881 1723 c-46 -23 -71 -67 -71 -125 0 -41 5 -54 35 -87 l35 -39 -59
-126 c-59 -124 -60 -126 -86 -116 -70 27 -196 1 -252 -52 l-22 -21 -66 53
c-59 49 -65 57 -65 92 0 48 -28 78 -73 78 -66 0 -98 -70 -56 -124 22 -28 64
-35 100 -15 16 8 29 2 77 -38 31 -26 59 -49 61 -50 3 -2 -6 -24 -19 -51 -33
-63 -39 -166 -15 -229 10 -26 37 -66 61 -90 l43 -43 -76 -109 c-72 -104 -77
-109 -97 -96 -109 68 -261 -23 -259 -156 1 -98 75 -171 173 -171 81 0 149 53
170 132 13 48 -1 114 -32 147 l-20 21 78 112 c72 102 81 110 104 104 89 -24
168 -22 219 6 17 9 24 1 60 -61 32 -55 39 -75 31 -89 -17 -31 -11 -59 15 -76
33 -21 72 -6 81 31 7 30 -18 65 -47 65 -11 0 -34 27 -62 73 l-44 73 33 32 c46
44 76 106 83 171 l6 55 213 53 c213 53 213 53 230 33 9 -11 31 -24 47 -28 105
-29 179 89 106 170 -25 28 -36 33 -76 33 -40 0 -51 -5 -76 -33 -21 -23 -29
-43 -29 -70 l0 -38 -197 -48 c-109 -27 -204 -51 -210 -54 -7 -2 -16 4 -19 14
-20 63 -43 101 -86 139 l-49 44 60 125 60 126 43 0 c173 0 183 246 11 266 -24
3 -51 -2 -72 -13z"/>
<path d="M1880 961 c-83 -26 -159 -90 -201 -171 -23 -43 -24 -53 -24 -270 l0
-225 28 -57 c69 -140 226 -209 379 -164 96 28 198 138 198 214 0 62 -83 86
-117 35 -38 -56 -102 -112 -138 -119 -80 -15 -156 23 -193 96 -22 43 -23 54
-20 231 l3 186 28 36 c52 68 137 94 210 63 30 -12 69 -51 110 -110 22 -32 75
-36 100 -8 53 58 -29 189 -153 246 -57 27 -153 34 -210 17z"/>
<path d="M2910 961 c-56 -17 -110 -53 -153 -101 -74 -82 -77 -100 -77 -440 0
-275 1 -298 18 -313 19 -17 68 -22 88 -9 30 20 34 55 34 327 0 305 0 307 64
363 91 80 243 33 276 -86 5 -21 10 -152 10 -308 0 -250 1 -272 18 -287 26 -23
78 -21 103 4 19 19 20 29 17 318 l-3 298 -35 69 c-41 79 -106 135 -184 159
-52 16 -134 18 -176 6z"/>
<path d="M3654 950 c-71 -28 -137 -89 -171 -158 l-28 -57 0 -220 0 -220 28
-57 c118 -241 457 -234 571 12 22 48 26 69 26 158 0 138 -4 142 -138 142 -90
0 -100 -2 -120 -23 -28 -29 -28 -57 -1 -91 17 -22 28 -26 70 -26 l49 0 0 -35
c0 -51 -21 -95 -63 -132 -84 -74 -212 -46 -264 57 -21 41 -23 58 -23 215 0
157 2 174 23 215 39 78 120 114 200 90 40 -12 92 -57 130 -113 35 -52 117 -26
117 37 0 62 -74 153 -160 197 -64 32 -177 36 -246 9z"/>
<path d="M4492 932 c-25 -25 -332 -748 -332 -782 0 -45 52 -78 95 -58 18 8 37
40 72 119 l47 109 162 0 161 0 47 -109 c36 -83 54 -111 73 -120 55 -25 113 31
91 89 -50 136 -315 739 -330 753 -26 22 -63 22 -86 -1z m76 -307 c11 -27 32
-76 46 -107 l26 -58 -105 0 -104 0 36 83 c19 45 42 97 50 116 16 39 22 35 51
-34z"/>
<path d="M1394 919 c-18 -20 -19 -41 -19 -404 0 -363 1 -384 19 -404 28 -31
79 -28 105 5 20 26 21 37 21 399 0 362 -1 373 -21 399 -26 33 -77 36 -105 5z"/>
<path d="M2420 920 c-19 -19 -20 -33 -20 -405 0 -372 1 -386 20 -405 26 -26
81 -26 103 -2 15 17 17 60 17 409 0 365 -1 391 -18 406 -25 23 -78 21 -102 -3z"/>
</g>
</svg>
