<svg xmlns="http://www.w3.org/2000/svg" id="Layer_2" viewBox="0 0 303.6 78.05">
  <style>
    .st0{fill:#4189DD;} .st1{fill:#FFFFFF;}
  </style>
  <path d="M97.88 6.62V2.55H77.53V25.1h20.35v-4.07H81.6v-5.05h12.27v-4.07H81.6V6.62zM74.84 25.1l-7.5-7.5H72.96V6.82l-4.27-4.27H53.06V25.1h4.06v-7.5h4.48l7.5 7.5h5.74zM57.12 6.62h9.9l1.89 1.89v5.03H57.12V6.62zM43.42 25.1h4.06V2.55H26.65V25.1h16.77zM30.71 6.62h12.71v14.41H30.71V6.62zM4.06 9.19l2.57-2.57h14.92V2.55H4.95L0 7.5V20.15l4.95 4.95h16.6v-4.07H6.63l-2.57-2.56zM184.74 2.55h2.65V25.1h-2.65zM155.33 5.2V2.55h-20.49V25.1h20.49v-2.65h-17.84v-7.46h13.47v-2.65h-13.47V5.2zM180.03 17.26V6.62l-.02.01-4.08-4.08h-16.56V25.1h16.57l4.09-4.09v-3.75zm-2.65 2.65l-2.54 2.54h-12.83V5.2h12.46l2.91 2.91v11.8zM208.94 2.55h-16.47V25.1h2.65v-9.14h15.34v9.14h2.65V6.73l-4.17-4.18zm1.52 10.76h-15.34V5.2h12.66l2.68 2.68v5.43zM125.53 2.55h-22.58V25.1h2.65V5.2h9.33v19.9h2.65V5.2h6.7l2.89 2.89V25.1h2.65V6.85z"/>
  <g>
    <path d="M294.27 13.72v7.77h-2.55v-7.37h-2.89v7.37h-2.55v-7.37h-2.92v7.37h-2.55v-9.91h11.49C285.24 4.43 275.43 0 264.58 0c-21.55 0-39.03 17.47-39.03 39.03 0 21.55 17.47 39.03 39.03 39.03 21.55 0 39.03-17.47 39.03-39.03-.01-9.66-3.53-18.5-9.34-25.31zm-13.36 18.81h-25.66l-2.19 2.19v11.65l2.19 2.19h25.66v7.77h-28.42l-7.58-7.58v-16.3l7.58-7.58h28.42v7.66z" class="st0"/>
    <path d="M280.82 21.49h2.55v-7.37h2.92v7.37h2.55v-7.37h2.89v7.37h2.55v-7.77c-.63-.74-1.28-1.45-1.96-2.14h-11.49v9.91zM244.9 32.45v16.3l7.58 7.58h28.43v-7.76h-25.66l-2.2-2.2V34.72l2.2-2.19h25.66v-7.66h-28.43z" class="st1"/>
  </g>
  <g>
    <path d="M124.63 46.6c0-1.2.23-2.28.69-3.24.46-.96 1.11-1.7 1.95-2.24.84-.54 1.79-.8 2.85-.8 1.05 0 2 .26 2.84.78s1.49 1.26 1.96 2.21.71 2.03.71 3.22v.56c0 1.21-.23 2.29-.69 3.24-.46.95-1.11 1.7-1.95 2.23-.84.53-1.79.8-2.85.8s-2.01-.26-2.85-.79c-.84-.53-1.49-1.27-1.96-2.21-.46-.95-.7-2.02-.71-3.2v-.56zm.62.49c0 1.05.21 2.01.62 2.88.41.87.99 1.55 1.73 2.04s1.59.73 2.54.73c1.43 0 2.6-.54 3.5-1.62.9-1.08 1.35-2.46 1.35-4.16v-.36c0-1.03-.21-1.98-.63-2.86-.42-.88-1-1.56-1.74-2.05-.74-.49-1.58-.74-2.52-.74-1.43 0-2.6.55-3.51 1.64-.91 1.09-1.36 2.47-1.36 4.13v.37zM139.31 43.49c.41-.98 1.02-1.75 1.81-2.31.8-.57 1.68-.85 2.65-.85 1.35 0 2.35.38 3 1.15s.99 1.92.99 3.46v8.21h-.63v-8.22c-.01-1.35-.28-2.34-.83-2.99-.54-.65-1.4-.97-2.58-.97-1.08 0-2.02.39-2.82 1.16-.79.77-1.33 1.76-1.61 2.98v8.05h-.63v-12.6h.63v2.93zM169.24 47.95c-.16 1.74-.76 3.08-1.8 4.02s-2.45 1.4-4.23 1.4c-1.2 0-2.26-.3-3.19-.91-.93-.61-1.65-1.47-2.16-2.59-.51-1.12-.77-2.4-.78-3.84v-2.62c0-1.44.25-2.73.76-3.87s1.22-2.01 2.16-2.63 2-.93 3.21-.93c1.77 0 3.17.46 4.22 1.39s1.65 2.26 1.81 4h-.63c-.18-1.56-.72-2.74-1.63-3.55-.91-.81-2.17-1.21-3.78-1.21-1.64 0-2.97.62-3.98 1.86-1.01 1.24-1.52 2.9-1.52 4.99v2.49c0 1.33.22 2.51.67 3.54.45 1.03 1.09 1.83 1.94 2.4.84.57 1.8.86 2.89.86 1.62 0 2.88-.4 3.8-1.2.91-.8 1.45-2 1.61-3.59h.63zM173.61 53.14h-.63V35.28h.63v17.86zM176.78 46.6c0-1.2.23-2.28.69-3.24.46-.96 1.11-1.7 1.95-2.24.84-.54 1.79-.8 2.85-.8 1.05 0 2 .26 2.84.78s1.49 1.26 1.96 2.21.71 2.03.71 3.22v.56c0 1.21-.23 2.29-.69 3.24-.46.95-1.11 1.7-1.95 2.23-.84.53-1.79.8-2.85.8s-2.01-.26-2.85-.79c-.84-.53-1.49-1.27-1.96-2.21-.46-.95-.7-2.02-.71-3.2v-.56zm.63.49c0 1.05.21 2.01.62 2.88.41.87.99 1.55 1.73 2.04s1.59.73 2.54.73c1.43 0 2.6-.54 3.5-1.62.9-1.08 1.35-2.46 1.35-4.16v-.36c0-1.03-.21-1.98-.63-2.86-.42-.88-1-1.56-1.74-2.05-.74-.49-1.58-.74-2.52-.74-1.43 0-2.6.55-3.51 1.64-.91 1.09-1.36 2.47-1.36 4.13v.37zM199.27 53.14V51.1c-.37.7-.91 1.25-1.63 1.66-.71.41-1.62.61-2.71.61-1.37 0-2.4-.4-3.09-1.2s-1.04-1.97-1.05-3.5v-8.1h.63v8.13c.01 1.33.32 2.34.91 3.03s1.45 1.03 2.58 1.03c1.2 0 2.18-.28 2.93-.85s1.23-1.39 1.43-2.49v-8.85h.64v12.58h-.64zM203.29 46.72c0-2.01.42-3.57 1.27-4.7.84-1.13 2-1.69 3.48-1.69.95 0 1.78.21 2.5.64.72.43 1.31 1.06 1.76 1.91v-7.59h.63v17.86h-.63v-2.01c-.43.71-1.01 1.26-1.75 1.66s-1.59.59-2.53.59c-1.46 0-2.61-.58-3.45-1.73-.84-1.15-1.27-2.74-1.27-4.75v-.19zm.65.24c0 1.78.35 3.19 1.06 4.23.71 1.04 1.71 1.55 3 1.55 1.04 0 1.93-.23 2.66-.69s1.28-1.14 1.64-2.03v-5.89c-.72-2.12-2.15-3.17-4.28-3.17-1.29 0-2.29.51-3 1.52-.72 1.01-1.08 2.51-1.08 4.48z"/>
  </g>
</svg>
